<?xml version="1.0" standalone="no"?>
<!DOCTYPE svg PUBLIC "-//W3C//DTD SVG 20010904//EN"
 "http://www.w3.org/TR/2001/REC-SVG-20010904/DTD/svg10.dtd">
<svg version="1.0" xmlns="http://www.w3.org/2000/svg"
 width="512.000000pt" height="512.000000pt" viewBox="0 0 512.000000 512.000000"
 preserveAspectRatio="xMidYMid meet">
<metadata>
Created by potrace 1.14, written by Peter Selinger 2001-2017
</metadata>
<g transform="translate(0.000000,512.000000) scale(0.100000,-0.100000)"
fill="#000000" stroke="none">
<path d="M457 4873 c-3 -5 -5 -934 -5 -2066 l0 -2057 27 34 c14 19 78 109 141
201 63 92 126 182 140 200 14 18 68 95 120 172 52 76 98 143 103 148 4 6 72
102 151 215 l143 206 0 1477 0 1477 -408 0 c-224 0 -410 -3 -412 -7z"/>
<path d="M3642 4808 c-28 -40 -60 -86 -72 -103 -26 -37 -339 -485 -425 -610
-34 -49 -131 -189 -216 -310 -85 -122 -167 -241 -184 -265 -16 -25 -35 -51
-42 -60 -7 -8 -122 -172 -255 -365 -230 -331 -299 -429 -373 -535 -17 -25
-259 -371 -537 -770 -278 -399 -523 -750 -544 -781 -21 -31 -128 -184 -237
-340 -109 -156 -223 -319 -253 -361 l-55 -78 488 0 488 0 50 72 c28 40 89 129
137 198 48 69 110 157 136 195 104 149 253 361 268 382 8 12 50 71 92 132 89
128 63 90 479 686 177 253 372 533 435 623 156 223 546 782 606 867 84 120
536 766 594 850 30 44 142 204 247 355 106 151 195 278 198 283 2 4 -216 7
-485 7 l-489 0 -51 -72z"/>
<path d="M4542 4182 c-68 -97 -207 -297 -310 -444 -103 -148 -231 -332 -286
-409 l-99 -142 1 -1466 c0 -806 1 -1472 1 -1478 1 -10 90 -13 411 -13 l410 0
0 2065 c0 1136 -1 2065 -2 2065 -2 -1 -58 -80 -126 -178z"/>
</g>
</svg>
